<?xml version="1.0" encoding="UTF-8"?>
<svg width="65px" height="64px" viewBox="0 0 65 64" version="1.1" xmlns="http://www.w3.org/2000/svg" xmlns:xlink="http://www.w3.org/1999/xlink">
    <!-- Generator: Sketch 53.2 (72643) - https://sketchapp.com -->
    <title>icon-medium</title>
    <desc>Created with Sketch.</desc>
    <g id="Page-1" stroke="none" stroke-width="1" fill="none" fill-rule="evenodd">
        <g id="icon-medium" fill="#FFFFFF" fill-rule="nonzero">
            <path d="M18.9131653,24.2433328 C18.9541653,23.8413082 18.7996855,23.4439517 18.4971989,23.1733739 L15.4159664,19.4896585 L15.4159664,18.9393939 L24.9831933,18.9393939 L32.3781512,35.0346319 L38.879552,18.9393939 L48,18.9393939 L48,19.4896585 L45.3655463,21.9964192 C45.1384275,22.1682308 45.025765,22.4506155 45.0728293,22.7301053 L45.0728293,41.1486826 C45.025765,41.4281724 45.1384275,41.710557 45.3655463,41.8823686 L47.9383754,44.3891294 L47.9383754,44.9393939 L34.997199,44.9393939 L34.997199,44.3891294 L37.6624652,41.8212282 C37.9243697,41.5613809 37.9243697,41.4849554 37.9243697,41.0875421 L37.9243697,26.199829 L30.5140056,44.8782534 L29.512605,44.8782534 L20.8851541,26.199829 L20.8851541,38.7183474 C20.8132215,39.2446612 20.9893539,39.774544 21.3627451,40.1551495 L24.8291317,44.327989 L24.8291317,44.8782534 L15,44.8782534 L15,44.327989 L18.4663866,40.1551495 C18.8370592,39.773913 19.0029211,39.2405153 18.9131653,38.7183474 L18.9131653,24.2433328 Z" id="Path"></path>
        </g>
    </g>
</svg>