<?xml version="1.0" encoding="UTF-8"?>
<svg width="31px" height="25px" viewBox="0 0 31 25" version="1.1" xmlns="http://www.w3.org/2000/svg" xmlns:xlink="http://www.w3.org/1999/xlink">
    <!-- Generator: Sketch 53.2 (72643) - https://sketchapp.com -->
    <title>icon-medium</title>
    <desc>Created with Sketch.</desc>
    <g id="Page-1" stroke="none" stroke-width="1" fill="none" fill-rule="evenodd">
        <g id="icon-medium" fill="#FFFFFF" fill-rule="nonzero">
            <path d="M3.67600374,4.98248801 C3.71451887,4.60482858 3.56940153,4.23155425 3.28524743,3.97737515 L0.390756302,0.516915183 L0.390756302,-1.77635684e-15 L9.37815126,-1.77635684e-15 L16.32493,15.119769 L22.4323064,-1.77635684e-15 L31,-1.77635684e-15 L31,0.516915183 L28.5252101,2.87175102 C28.3118561,3.03314984 28.2060216,3.29842024 28.2502335,3.56097127 L28.2502335,20.8632712 C28.2060216,21.1258222 28.3118561,21.3910925 28.5252101,21.5524914 L30.9421102,23.9073273 L30.9421102,24.4242424 L18.7852475,24.4242424 L18.7852475,23.9073273 L21.2889824,21.4950564 C21.535014,21.2509575 21.535014,21.1791638 21.535014,20.8058362 L21.535014,6.82040868 L14.5737628,24.3668074 L13.6330532,24.3668074 L5.52847805,6.82040868 L5.52847805,18.580229 C5.46090505,19.074645 5.62636272,19.5724136 5.97712417,19.9299521 L9.2334267,23.8498923 L9.2334267,24.3668074 L0,24.3668074 L0,23.8498923 L3.25630252,19.9299521 C3.60451012,19.5718209 3.76031983,19.0707503 3.67600374,18.580229 L3.67600374,4.98248801 Z" id="Shape"></path>
        </g>
    </g>
</svg>