<?xml version="1.0" encoding="UTF-8"?>
<svg width="23px" height="19px" viewBox="0 0 23 19" version="1.1" xmlns="http://www.w3.org/2000/svg" xmlns:xlink="http://www.w3.org/1999/xlink">
    <!-- Generator: Sketch 53.2 (72643) - https://sketchapp.com -->
    <title>icon-medium</title>
    <desc>Created with Sketch.</desc>
    <g id="Page-1" stroke="none" stroke-width="1" fill="none" fill-rule="evenodd">
        <g id="icon-medium" fill="#FFFFFF" fill-rule="nonzero">
            <path d="M2.72735761,3.69668465 C2.75593336,3.41648572 2.64826565,3.13954025 2.43744164,2.95095576 L0.289915966,0.383517716 L0.289915966,-1.77635684e-15 L6.95798319,-1.77635684e-15 L12.1120448,11.2178931 L16.6433241,-1.77635684e-15 L23,-1.77635684e-15 L23,0.383517716 L21.1638656,2.13065398 C21.0055707,2.25040149 20.9270483,2.44721502 20.9598507,2.64201094 L20.9598507,15.4792012 C20.9270483,15.6739971 21.0055707,15.8708106 21.1638656,15.9905581 L22.9570495,17.7376944 L22.9570495,18.1212121 L13.9374417,18.1212121 L13.9374417,17.7376944 L15.7950515,15.9479451 C15.977591,15.7668394 15.977591,15.7135731 15.977591,15.4365881 L15.977591,5.06030321 L10.8127918,18.078599 L10.1148459,18.078599 L4.10177404,5.06030321 L4.10177404,13.7853312 C4.05163923,14.152156 4.17439815,14.5214682 4.43464051,14.7867387 L6.85060691,17.6950814 L6.85060691,18.078599 L0,18.078599 L0,17.6950814 L2.41596639,14.7867387 C2.67431396,14.5210284 2.78991471,14.1492664 2.72735761,13.7853312 L2.72735761,3.69668465 Z"></path>
        </g>
    </g>
</svg>